<?xml version="1.0" encoding="utf-8"?>
<!-- Generator: Adobe Illustrator 23.0.0, SVG Export Plug-In . SVG Version: 6.00 Build 0)  -->
<svg version="1.1" id="logo" xmlns="http://www.w3.org/2000/svg" xmlns:xlink="http://www.w3.org/1999/xlink" x="0px" y="0px"
	 viewBox="0 0 1416.37 226" style="enable-background:new 0 0 1416.37 226;" xml:space="preserve">
<style type="text/css">
	.st0{fill:#FD2D55;}
	.st1{fill:#444444;}
</style>
<path id="logo_copy_2" class="st0" d="M407.21,6.82v211.84h-45.22l-91.9-153.93h-0.88v153.93h-40.82V6.82h46.69l91.02,154.22h0.88
	V43.26h-37.87V6.82H407.21L407.21,6.82z M422.48,6.54H541.1v37h-77.81v51.69h44.04v36.72h-44.04v49.99h77.81v36.72H422.48
	L422.48,6.54L422.48,6.54z"/>
<path id="logo_copy" class="st1" d="M725.81,218.66V73.62l-41.09,145.04H639l-40.76-144.4v144.4h-42.75V7h67.6l39.76,155.24
	L702.62,7h66.27v211.66H725.81L725.81,218.66z M914.36,7h47.05v141.21c0,25.72-7.84,45.11-23.52,58.18
	c-15.69,13.07-38,19.6-66.94,19.6c-26.73,0-47.89-6.16-63.46-18.48s-23.36-31.23-23.36-56.74V7h46.72v139.62
	c0,13.18,3.43,23.59,10.28,31.24c6.84,7.65,16.56,11.48,29.16,11.48c29.38,0,44.07-13.71,44.07-41.13L914.36,7L914.36,7z
	 M1101.25,69.48c-1.11-10.84-5.2-18.92-12.26-24.23c-7.06-5.31-17.67-7.97-31.81-7.97c-26.07,0-39.1,8.61-39.1,25.82
	c0,6.16,2.7,11.32,8.11,15.46c5.42,4.14,14.09,7.6,26.02,10.36c14.13,3.18,26.39,6.16,36.78,8.92c9.71,2.54,19.23,5.74,28.5,9.57
	c4.82,1.9,9.43,4.3,13.75,7.17c4.28,2.85,7.99,6.47,10.93,10.68c3.19,4.68,5.59,9.85,7.13,15.3c1.91,7.06,2.8,14.36,2.65,21.67
	c0,10.2-2.21,19.23-6.63,27.1c-4.43,7.87-10.54,14.67-17.89,19.92c-8.04,5.67-17.01,9.87-26.51,12.43
	c-10.46,2.91-21.28,4.36-32.14,4.3c-32.04,0-56.12-5.95-72.24-17.85c-16.13-11.89-24.64-29.53-25.52-52.92h44.41
	c0.21,10.84,4.79,19.4,13.75,25.67c8.94,6.27,20.15,9.4,33.63,9.4c14.58,0,25.63-2.55,33.14-7.65c7.5-5.1,11.25-12,11.26-20.71
	c0.03-3.18-0.41-6.36-1.32-9.41c-0.98-3.02-2.76-5.71-5.14-7.81c-3.09-2.67-6.62-4.78-10.44-6.22c-5.59-2.14-11.35-3.8-17.23-4.94
	c-16.79-3.4-31.31-6.85-43.57-10.36c-12.26-3.51-22.36-7.86-30.32-13.07c-7.96-5.2-13.82-11.52-17.57-18.96
	c-3.75-7.44-5.63-16.9-5.63-28.37c-0.05-8.44,1.64-16.8,4.97-24.55c3.4-7.77,8.64-14.61,15.25-19.92c7.54-6,16.13-10.54,25.34-13.39
	c10.06-3.29,21.94-4.94,35.63-4.94c12.11-0.16,24.17,1.5,35.78,4.94c9.91,2.93,19.18,7.69,27.34,14.03
	c7.5,5.9,13.56,13.42,17.73,21.99c4.27,8.92,6.64,18.64,6.96,28.53L1101.25,69.48L1101.25,69.48z M1161.56,218.66V7h46.06v211.66
	L1161.56,218.66L1161.56,218.66z M1416.38,145.98c-2.2,11.46-6.11,22.53-11.6,32.83c-5.11,9.54-11.9,18.07-20.05,25.19
	c-8.24,7.12-17.73,12.63-28,16.25c-11.28,3.94-23.17,5.88-35.12,5.74c-13.73,0.11-27.37-2.26-40.26-7.01
	c-12.22-4.49-23.26-11.68-32.31-21.04c-9.06-9.35-16.18-20.88-21.37-34.58c-5.2-13.71-7.8-29.7-7.79-47.98
	c0-17.85,2.37-33.95,7.12-48.29c4.75-14.34,11.54-26.46,20.38-36.34c8.91-9.94,19.96-17.73,32.31-22.79
	c12.7-5.31,26.89-7.96,42.58-7.97c12.67-0.16,25.28,1.83,37.28,5.89c10.53,3.59,20.31,9.1,28.83,16.26
	c7.96,6.78,14.49,15.06,19.22,24.38c4.75,9.36,7.73,19.52,8.78,29.97h-46.06c-3.1-12.11-9.06-21.52-17.89-28.22
	c-8.54-6.59-19.04-10.13-29.83-10.04c-19.22,0-33.36,6.64-42.41,19.93c-9.05,13.28-13.58,31.51-13.59,54.67
	c0,23.59,4.47,41.92,13.42,54.99s22.37,19.6,40.26,19.6c13.7,0,24.69-3.56,32.97-10.68s13.97-17.37,17.07-30.76L1416.38,145.98
	L1416.38,145.98z"/>
<path id="XMLID_157_" class="st0" d="M212.05,112.85c0-16.64-3.84-32.39-10.68-46.41c0.61,8.12-1.09,16.13-5.13,23.63
	c-7.72,14.33-24.31,25.18-37.89,25.63l-79.58,48.1c-3.98,7.58-3.89,22.19,4.14,34.98c4.64,7.39,15.51,19.31,37.14,19.13
	C171.98,211.05,212.05,166.65,212.05,112.85z"/>
<path id="XMLID_164_" class="st0" d="M78,201.88c-7.28-11.59-9.51-26.25-6.02-36.88V60.68c-6.31-5.71-16.72-10.4-28.11-10.47
	c-14.41-0.12-26.8,7.18-35.19,20.58C3.11,83.68,0,97.9,0,112.85C0,168,42.12,213.3,95.94,218.38C86.79,213.7,81.14,206.88,78,201.88
	z"/>
<path id="XMLID_165_" class="st0" d="M43.92,44.47c15.74,0,31.98,8.35,37.93,19.28l76.37,46.16c10.63-0.35,25.18-8.23,32.92-22.59
	c4.98-9.24,8.44-24.05-3.44-42.09l0,0c-19.45-23.46-48.81-38.41-81.67-38.41c-35.58,0-67.04,17.54-86.28,44.43
	c7.05-4.45,15.11-6.78,23.84-6.78C43.7,44.47,43.81,44.47,43.92,44.47z"/>
</svg>
