<?xml version="1.0" encoding="utf-8"?>
<!-- Generator: Adobe Illustrator 23.0.0, SVG Export Plug-In . SVG Version: 6.00 Build 0)  -->
<svg version="1.1" id="logo" xmlns="http://www.w3.org/2000/svg" xmlns:xlink="http://www.w3.org/1999/xlink" x="0px" y="0px"
	 viewBox="0 0 1932.7 1947.3" style="enable-background:new 0 0 1932.7 1947.3;" xml:space="preserve">
<style type="text/css">
	.st0{fill:#FD2D55;}
	.st1{fill:#FFFFFF;}
	.st2{fill:#444444;}
</style>
<path class="st0" d="M1082.7,1947.3H850c-467.5,0-850-382.5-850-850V864.6c0-467.5,382.5-850,850-850h232.7
	c467.5,0,850,382.5,850,850v232.7C1932.7,1564.8,1550.2,1947.3,1082.7,1947.3z"/>
<path class="st1" d="M1073.9,1938.5H858.8c-467.5,0-850-382.5-850-850V873.4c0-467.5,382.5-850,850-850h215.1
	c467.5,0,850,382.5,850,850v215.1C1923.9,1556,1541.4,1938.5,1073.9,1938.5z"/>
<path id="logo_copy_2" class="st0" d="M616.1,857.4v246.5h-52.6L456.5,924.8h-1v179.1H408V857.4h54.3l105.9,179.5h1V899.8h-44.1
	v-42.4H616.1L616.1,857.4z M633.8,857.1h138v43.1h-90.6v60.2h51.3v42.7h-51.3v58.2h90.6v42.7h-138V857.1L633.8,857.1z"/>
<path id="logo_copy" class="st2" d="M986.8,1103.9V935.1L939,1103.9h-53.2l-47.4-168v168h-49.7V857.6h78.7l46.3,180.7l46.3-180.7
	h77.1v246.3H986.8L986.8,1103.9z M1206.3,857.6h54.8v164.3c0,29.9-9.1,52.5-27.4,67.7c-18.3,15.2-44.2,22.8-77.9,22.8
	c-31.1,0-55.7-7.2-73.9-21.5c-18.1-14.3-27.2-36.3-27.2-66V857.6h54.4v162.5c0,15.3,4,27.5,12,36.4c8,8.9,19.3,13.4,33.9,13.4
	c34.2,0,51.3-16,51.3-47.9V857.6L1206.3,857.6z M1423.8,930.3c-1.3-12.6-6.1-22-14.3-28.2s-20.6-9.3-37-9.3c-30.3,0-45.5,10-45.5,30
	c0,7.2,3.1,13.2,9.4,18c6.3,4.8,16.4,8.8,30.3,12.1c16.4,3.7,30.7,7.2,42.8,10.4c11.3,3,22.4,6.7,33.2,11.1c5.6,2.2,11,5,16,8.3
	c5,3.3,9.3,7.5,12.7,12.4c3.7,5.4,6.5,11.5,8.3,17.8c2.2,8.2,3.3,16.7,3.1,25.2c0,11.9-2.6,22.4-7.7,31.5
	c-5.2,9.2-12.3,17.1-20.8,23.2c-9.4,6.6-19.8,11.5-30.9,14.5c-12.2,3.4-24.8,5.1-37.4,5c-37.3,0-65.3-6.9-84.1-20.8
	c-18.8-13.8-28.7-34.4-29.7-61.6h51.7c0.2,12.6,5.6,22.6,16,29.9c10.4,7.3,23.4,10.9,39.1,10.9c17,0,29.8-3,38.6-8.9
	c8.7-5.9,13.1-14,13.1-24.1c0-3.7-0.5-7.4-1.5-11c-1.1-3.5-3.2-6.6-6-9.1c-3.6-3.1-7.7-5.6-12.1-7.2c-6.5-2.5-13.2-4.4-20.1-5.7
	c-19.5-4-36.4-8-50.7-12.1s-26-9.1-35.3-15.2c-9.3-6.1-16.1-13.4-20.4-22.1s-6.6-19.7-6.6-33c-0.1-9.8,1.9-19.6,5.8-28.6
	c4-9,10.1-17,17.7-23.2c8.8-7,18.8-12.3,29.5-15.6c11.7-3.8,25.5-5.7,41.5-5.7c14.1-0.2,28.1,1.7,41.6,5.7
	c11.5,3.4,22.3,8.9,31.8,16.3c8.7,6.9,15.8,15.6,20.6,25.6c5,10.4,7.7,21.7,8.1,33.2L1423.8,930.3L1423.8,930.3z M1493.9,1103.9
	V857.6h53.6v246.3H1493.9L1493.9,1103.9z M1790.5,1019.3c-2.6,13.3-7.1,26.2-13.5,38.2c-5.9,11.1-13.8,21-23.3,29.3
	c-9.6,8.3-20.6,14.7-32.6,18.9c-13.1,4.6-27,6.8-40.9,6.7c-16,0.1-31.9-2.6-46.9-8.2c-14.2-5.2-27.1-13.6-37.6-24.5
	c-10.5-10.9-18.8-24.3-24.9-40.2c-6.1-16-9.1-34.6-9.1-55.8c0-20.8,2.8-39.5,8.3-56.2c5.5-16.7,13.4-30.8,23.7-42.3
	c10.4-11.6,23.2-20.6,37.6-26.5c14.8-6.2,31.3-9.3,49.6-9.3c14.7-0.2,29.4,2.1,43.4,6.9c12.3,4.2,23.6,10.6,33.6,18.9
	c9.3,7.9,16.9,17.5,22.4,28.4c5.5,10.9,9,22.7,10.2,34.9h-53.6c-3.6-14.1-10.5-25-20.8-32.8c-9.9-7.7-22.2-11.8-34.7-11.7
	c-22.4,0-38.8,7.7-49.4,23.2c-10.5,15.5-15.8,36.7-15.8,63.6c0,27.5,5.2,48.8,15.6,64c10.4,15.2,26,22.8,46.9,22.8
	c15.9,0,28.7-4.1,38.4-12.4c9.6-8.3,16.3-20.2,19.9-35.8H1790.5L1790.5,1019.3z"/>
<path id="XMLID_157_" class="st0" d="M389,980.8c0-19.4-4.5-37.7-12.4-54c0.7,9.4-1.3,18.8-6,27.5c-9,16.7-28.3,29.3-44.1,29.8
	l-92.6,56c-4.6,8.8-4.5,25.8,4.8,40.7c5.4,8.6,18,22.5,43.2,22.3C342.3,1095.1,389,1043.4,389,980.8z"/>
<path id="XMLID_164_" class="st0" d="M233,1084.4c-8.5-13.5-11.1-30.5-7-42.9V920.1c-7.3-6.6-19.5-12.1-32.7-12.2
	c-16.8-0.1-31.2,8.4-41,23.9c-6.5,15-10.1,31.5-10.1,48.9c0,64.2,49,116.9,111.6,122.8C243.2,1098.1,236.6,1090.2,233,1084.4z"/>
<path id="XMLID_165_" class="st0" d="M193.3,901.2c18.3,0,37.2,9.7,44.1,22.4l88.9,53.7c12.4-0.4,29.3-9.6,38.3-26.3
	c5.8-10.8,9.8-28-4-49l0,0c-22.6-27.3-56.8-44.7-95-44.7c-41.4,0-78,20.4-100.4,51.7c8.2-5.2,17.6-7.9,27.7-7.9
	C193,901.2,193.2,901.2,193.3,901.2z"/>
</svg>
